# AST/ASF file generated using VICON BodyLanguage
# -----------------------------------------------
:version 1.10
:name VICON
:units
  mass 1.0
  length 0.45
  angle deg
:documentation
   .ast/.asf automatically generated from VICON data using
   VICON BodyBuilder and BodyLanguage model FoxedUp or BRILLIANT.MOD
:root
   order TX TY TZ RX RY RZ
   axis XYZ
   position 0 0 0  
   orientation 0 0 0 
:bonedata
  begin
     id 1 
     name lhipjoint
     direction 0.635376 -0.686425 0.353719 
     length 2.47244 
     axis 0 0 0  XYZ
  end
  begin
     id 2 
     name lfemur
     direction 0.34202 -0.939693 0  
     length 7.25268  
     axis 0 0 20  XYZ
    dof rx ry rz
    limits (-160.0 20.0)
           (-70.0 70.0)
           (-60.0 70.0)
  end
  begin
     id 3 
     name ltibia
     direction 0.34202 -0.939693 0   
     length 7.6767   
     axis 0 0 20   XYZ
    dof rx
    limits (-10.0 170.0)
  end
  begin
     id 4 
     name lfoot
     direction 0.0803374 -0.220725 0.972022   
     length 2.22945   
     axis -90 7.62852e-016 20   XYZ
    dof rx rz
    limits (-45.0 90.0)
           (-70.0 20.0)
  end
  begin
     id 5 
     name ltoes
     direction 1.53579e-011 -4.21994e-011 1   
     length 1.11848   
     axis -90 7.62852e-016 20   XYZ
    dof rx
    limits (-90.0 20.0)
  end
  begin
     id 6 
     name rhipjoint
     direction -0.664428 -0.664335 0.342336   
     length 2.55466  
     axis 0 0 0  XYZ 
  end
  begin
     id 7 
     name rfemur
     direction -0.34202 -0.939693 0   
     length 6.83172   
     axis 0 0 -20   XYZ
    dof rx ry rz
    limits (-160.0 20.0)
           (-70.0 70.0)
           (-70.0 60.0)
  end
  begin
     id 8 
     name rtibia
     direction -0.34202 -0.939693 0   
     length 7.62692   
     axis 0 0 -20   XYZ
    dof rx
    limits (-10.0 170.0)
 end
 begin
     id 9 
     name rfoot
     direction -0.0949276 -0.260811 0.960711   
     length 2.19684  
     axis -90 -7.62852e-016 -20   XYZ
    dof rx rz
    limits (-45.0 90.0)
           (-20.0 70.0)
  end
  begin
     id 10 
     name rtoes
     direction -1.53543e-011 -4.2183e-011 1   
     length 1.09848   
     axis -90 -7.62852e-016 -20   XYZ
    dof rx
    limits (-90.0 20.0)
  end
  begin
     id 11 
     name lowerback
     direction 0.0118782 0.999815 -0.0151555   
     length 2.15772   
     axis 0 0 0   XYZ
    dof rx ry rz
    limits (-20.0 45.0)
           (-30.0 30.0)
           (-30.0 30.0)
  end
  begin
     id 12 
     name upperback
     direction 0.00130825 0.999065 0.0432113   
     length 2.14863   
     axis 0 0 0   XYZ
    dof rx ry rz
    limits (-20.0 45.0)
           (-30.0 30.0)
           (-30.0 30.0)
  end
  begin
     id 13 
     name thorax
     direction -0.00347005 0.998773 0.0494011   
     length 2.14936   
     axis 0 0 0   XYZ
    dof rx ry rz
    limits (-20.0 45.0)
           (-30.0 30.0)
           (-30.0 30.0)
  end
  begin
     id 14 
     name lowerneck
     direction -0.0262159 0.99424 0.103921   
     length 1.69373   
     axis 0 0 0   XYZ
    dof rx ry rz
    limits (-20.0 45.0)
           (-30.0 30.0)
           (-30.0 30.0)
  end
  begin
     id 15 
     name upperneck
     direction 0.0353511 0.977394 -0.20845   
     length 1.70857   
     axis 0 0 0   XYZ
    dof rx ry rz
    limits (-20.0 45.0)
           (-30.0 30.0)
           (-30.0 30.0)
  end
  begin
     id 16
     name head
     direction 0.0139214 0.996594 -0.0812836  
     length 1.72777  
     axis 0 0 0   XYZ
    dof rx ry rz
    limits (-20.0 45.0)
           (-30.0 30.0)
           (-30.0 30.0)
  end
  begin
     id 17 
     name lclavicle
     direction 0.841247 0.537205 -0.0609508  
     length 3.55371  
     axis 0 0 0   XYZ
    dof ry rz
    limits (-20.0 10.0)
           (0.0 20.0)
  end
  begin
     id 18 
     name lhumerus
     direction 1 -4.48964e-011 1.60116e-018   
     length 4.91377   
     axis -180 -30 -90   XYZ
    dof rx ry rz
    limits (-60.0 90.0)
           (-90.0 90.0)
           (-90.0 90.0)
  end
  begin
     id 19
     name lradius
     direction 1 -4.48989e-011 -8.93847e-027   
     length 3.00291   
     axis -180 -30 -90   XYZ
    dof rx
    limits (-10.0 170.0)
  end
  begin
     id 20
     name lwrist
     direction 1 -4.48932e-011 -7.31504e-027   
     length 1.50145   
     axis 5.74121e-015 90 90   XYZ
    dof ry
    limits (-180.0 0.0)
 end
  begin
     id 21 
     name lhand
     direction 1 -4.48971e-011 -1.46301e-026   
     length 0.450922   
     axis 9.33524e-015 90 90   XYZ
    dof rx rz
    limits (-90.0 90.0)
           (-45.0 45.0)
  end
  begin
     id 22 
     name lfingers
     direction 1 -4.49039e-011 -2.92602e-026   
     length 0.363545   
     axis 1.86705e-014 90 90   XYZ
    dof rx
    limits (0.0 90.0)
  end
  begin
     id 23
     name lthumb
     direction 0.707107 -6.34941e-011 0.707107   
     length 0.52198   
     axis -90 45 2.85299e-015   XYZ
    dof rx rz
    limits (-45.0 45.0)
           (-45.0 45.0)
  end
  begin
     id 24 
     name rclavicle
     direction -0.825079 0.56158 -0.0622297   
     length 3.39909  
     axis 0 0 0   XYZ 
    dof ry rz
    limits (-10.0 20.0)
           (-20.0 0.0)
  end
  begin
     id 25 
     name rhumerus
     direction -1 -4.48965e-011 1.61691e-027  
     length 4.86725   
     axis -180 30 90   XYZ
    dof rx ry rz
    limits (-90.0 60.0)
           (-90.0 90.0)
           (-90.0 90.0)
  end
  begin
     id 26 
     name rradius
     direction -1 -4.48964e-011 -2.25776e-027   
     length 3.17144   
     axis -180 30 90   XYZ
    dof rx
    limits (-10.0 170.0)
  end
  begin
     id 27 
     name rwrist
     direction -1 -4.48961e-011 -7.31504e-027   
     length 1.58572   
     axis 5.74121e-015 -90 -90   XYZ
    dof ry
    limits (-180.0 0.0)
  end
  begin
     id 28
     name rhand
     direction -1 -4.49013e-011 -1.46301e-026   
     length 0.419368   
     axis 9.33524e-015 -90 -90   XYZ
    dof rx rz
    limits (-90.0 90.0)
           (-45.0 45.0)
  end
  begin
     id 29
     name rfingers
     direction -1 -4.489e-011 -2.92602e-026   
     length 0.338105   
     axis 1.86705e-014 -90 -90   XYZ
    dof rx
    limits (0.0 90.0)
  end
  begin
     id 30
     name rthumb
     direction -0.707107 -6.35022e-011 0.707107   
     length 0.485453   
     axis -90 -45 -2.85299e-015   XYZ
    dof rx rz
    limits (-45.0 45.0)
           (-45.0 45.0)
  end
:hierarchy
  begin
    root lhipjoint rhipjoint lowerback
    lhipjoint lfemur
    lfemur ltibia
    ltibia lfoot
    lfoot ltoes
    rhipjoint rfemur
    rfemur rtibia
    rtibia rfoot
    rfoot rtoes
    lowerback upperback
    upperback thorax
    thorax lowerneck lclavicle rclavicle
    lowerneck upperneck
    upperneck head
    lclavicle lhumerus
    lhumerus lradius
    lradius lwrist
    lwrist lhand lthumb
    lhand lfingers
    rclavicle rhumerus
    rhumerus rradius
    rradius rwrist
    rwrist rhand rthumb
    rhand rfingers
  end

#!OML:ASF H:\Swim 2\Project 1\Capture day 1\Session 1\male.ASF
:FULLY-SPECIFIED
:DEGREES
1360
root 3.74331 14.5721 8.71445 108.544 6.9608 -13.6335
lowerback -27.7334 13.6797 -9.40006
upperback -9.70842 21.8754 5.05772
thorax -1.74031 12.4361 14.5017
lowerneck -20.2637 -6.66527 25.7241
upperneck 53.2154 -15.3528 -16.4917
head 22.3489 -1.56519 -17.7639
rclavicle 1.08139e-013 1.11319e-013
rhumerus 54.0911 -10.0756 19.5603
rradius 43.0411
rwrist -24.935
rhand -29.1772 -3.46876
rfingers 7.12502
rthumb -2.52287 -33.4336
lclavicle 1.08139e-013 1.11319e-013
lhumerus -124.917 -62.9199 144.137
lradius 78.0431
lwrist 52.6245
lhand -50.5498 -22.637
lfingers 7.12502
lthumb -23.1167 5.99614
rfemur -44.1733 5.619 15.0828
rtibia 36.1219
rfoot 31.9743 6.99456
rtoes 21.6242
lfemur -47.3983 8.36769 -31.3322
ltibia 52.4452
lfoot 9.13236 6.04003
ltoes 10.995
1361
root 3.76826 14.5775 8.72647 108.741 7.32817 -14.1198
lowerback -28.1083 13.8672 -9.27302
upperback -9.6894 22.1401 5.18705
thorax -1.64736 12.5804 14.6968
lowerneck -20.1555 -6.60793 25.9728
upperneck 52.9707 -15.2257 -16.5916
head 22.0591 -1.58235 -17.7226
rclavicle 1.78111e-013 7.55382e-014
rhumerus 54.0553 -9.8232 19.634
rradius 42.8412
rwrist -24.697
rhand -29.5129 -3.40141
rfingers 7.12502
rthumb -2.84704 -33.3621
lclavicle 1.78111e-013 7.55382e-014
lhumerus -127.467 -61.6648 145.957
lradius 77.9411
lwrist 51.2328
lhand -50.791 -25.3627
lfingers 7.12502
lthumb -23.3482 3.24123
rfemur -43.8884 5.82575 14.7598
rtibia 36.6037
rfoot 32.5896 7.21543
rtoes 21.8298
lfemur -48.0392 7.81924 -30.7837
ltibia 49.9805
lfoot 8.6339 8.16255
ltoes 10.9019
1362
root 3.79612 14.5814 8.74741 108.875 7.65856 -14.5542
lowerback -28.4055 14.0463 -9.14893
upperback -9.65057 22.3842 5.31375
thorax -1.56117 12.7107 14.8746
lowerneck -20.0892 -6.56342 26.2303
upperneck 52.7507 -15.157 -16.665
head 21.7937 -1.60771 -17.6859
rclavicle -1.27222e-014 -7.15625e-015
rhumerus 54.0094 -9.60083 19.7247
rradius 42.6461
rwrist -24.5039
rhand -29.8058 -3.41906
rfingers 7.12502
rthumb -3.12988 -33.3758
lclavicle -1.27222e-014 -7.15625e-015
lhumerus -129.601 -60.4008 147.552
lradius 77.53
lwrist 49.2211
lhand -50.842 -28.2945
lfingers 7.12502
lthumb -23.3971 0.303204
rfemur -43.4474 6.00597 14.3992
rtibia 36.8892
rfoot 33.1757 7.39135
rtoes 22.0249
lfemur -48.4831 7.09991 -30.1133
ltibia 47.2758
lfoot 8.11552 10.4218
ltoes 10.9089
1363
root 3.8276 14.5844 8.77494 108.958 7.9372 -14.8819
lowerback -28.6171 14.2017 -9.02636
upperback -9.60025 22.5854 5.43035
thorax -1.4831 12.8149 15.0211
lowerneck -20.0575 -6.52921 26.4968
upperneck 52.5546 -15.1392 -16.712
head 21.5509 -1.63921 -17.6517
rclavicle 4.13472e-014 9.06458e-014
rhumerus 53.9489 -9.40814 19.8205
rradius 42.4738
rwrist -24.3715
rhand -30.0533 -3.52256
rfingers 7.12502
rthumb -3.36894 -33.4757
lclavicle 4.13472e-014 9.06458e-014
lhumerus -131.313 -59.1751 148.927
lradius 76.795
lwrist 46.6178
lhand -50.7141 -31.4353
lfingers 7.12502
lthumb -23.2744 -2.82194
rfemur -42.8725 6.1155 14.001
rtibia 37.0194
rfoot 33.7156 7.52366
rtoes 22.1888
lfemur -48.7434 6.15331 -29.3196
ltibia 44.3661
lfoot 7.56764 12.7469
ltoes 11.147
1364
root 3.86293 14.5867 8.80554 109.011 8.15287 -15.0542
lowerback -28.7464 14.3178 -8.90413
upperback -9.54808 22.7224 5.52924
thorax -1.41139 12.8816 15.1253
lowerneck -20.0484 -6.50124 26.7698
upperneck 52.3738 -15.1537 -16.7423
head 21.3237 -1.67426 -17.6197
rclavicle -2.8625e-014 -1.19271e-014
rhumerus 53.8732 -9.24583 19.9086
rradius 42.3375
rwrist -24.3108
rhand -30.2582 -3.68985
rfingers 7.12502
rthumb -3.56684 -33.6398
lclavicle -2.8625e-014 -1.19271e-014
lhumerus -132.621 -58.0299 150.108
lradius 75.7299
lwrist 43.4617
lhand -50.4367 -34.7583
lfingers 7.12502
lthumb -23.0081 -6.11159
rfemur -42.2064 6.11476 13.5683
rtibia 37.0557
rfoot 34.1874 7.6131
rtoes 22.3025
lfemur -48.8555 4.93553 -28.4068
ltibia 41.3002
lfoot 6.97306 15.0784
ltoes 11.7013
1365
root 3.90211 14.5887 8.83587 109.059 8.29899 -15.0323
lowerback -28.8045 14.3812 -8.78047
upperback -9.50341 22.7768 5.60393
thorax -1.34211 12.9008 15.1792
lowerneck -20.0514 -6.47215 27.0529
upperneck 52.1953 -15.1722 -16.7843
head 21.1026 -1.70842 -17.6013
rclavicle 2.13097e-013 8.82604e-014
rhumerus 53.7844 -9.11425 19.9779
rradius 42.2436
rwrist -24.3222
rhand -30.4296 -3.88206
rfingers 7.12502
rthumb -3.73231 -33.8291
lclavicle 2.13097e-013 8.82604e-014
lhumerus -133.569 -56.9965 151.138
lradius 74.3368
lwrist 39.7917
lhand -50.068 -38.1963
lfingers 7.12502
lthumb -22.6544 -9.5059
rfemur -41.4983 5.9728 13.1067
rtibia 37.0665
rfoot 34.5654 7.65724
rtoes 22.3408
lfemur -48.8667 3.4244 -27.3854
ltibia 38.1322
lfoot 6.31517 17.3719
ltoes 12.5786
1366
root 3.94482 14.5908 8.86329 109.125 8.37437 -14.7961
lowerback -28.8068 14.3833 -8.65349
upperback -9.47326 22.7377 5.65019
thorax -1.27062 12.867 15.179
lowerneck -20.0595 -6.43854 27.3399
upperneck 52.0138 -15.1753 -16.8574
head 20.8855 -1.73872 -17.6045
rclavicle -3.81667e-014 -1.59028e-014
rhumerus 53.6867 -9.01311 20.0203
rradius 42.1907
rwrist -24.3899
rhand -30.5801 -4.05803
rfingers 7.12502
rthumb -3.87764 -34.0025
lclavicle -3.81667e-014 -1.59028e-014
lhumerus -134.217 -56.0928 152.066
lradius 72.6246
lwrist 35.6503
lhand -49.7215 -41.6861
lfingers 7.12502
lthumb -22.3218 -12.9554
rfemur -40.7925 5.67436 12.6234
rtibia 37.1129
rfoot 34.8274 7.64926
rtoes 22.289
lfemur -48.8248 1.6293 -26.2726
ltibia 34.9147
lfoot 5.5807 19.5922
ltoes 13.6837
1367
root 3.99035 14.5931 8.88601 109.22 8.38244 -14.3505
lowerback -28.7708 14.3226 -8.52359
upperback -9.4613 22.6045 5.66693
thorax -1.1935 12.7802 15.1272
lowerneck -20.0701 -6.40366 27.6137
upperneck 51.8364 -15.1597 -16.9649
head 20.68 -1.76482 -17.6309
rclavicle 3.18055e-014 2.70347e-014
rhumerus 53.5853 -8.93977 20.0308
rradius 42.1711
rwrist -24.4868
rhand -30.7246 -4.18348
rfingers 7.12502
rthumb -4.01723 -34.1254
lclavicle 3.18055e-014 2.70347e-014
lhumerus -134.632 -55.3253 152.939
lradius 70.6085
lwrist 31.0934
lhand -49.5806 -45.1203
lfingers 7.12502
lthumb -22.1865 -16.3736
rfemur -40.1238 5.22631 12.1246
rtibia 37.2405
rfoot 34.9596 7.57544
rtoes 22.1516
lfemur -48.7701 -0.402063 -25.0951
ltibia 31.6949
lfoot 4.77653 21.7055
ltoes 14.8324
1368
root 4.0375 14.5956 8.90294 109.351 8.33337 -13.7258
lowerback -28.7129 14.2048 -8.39082
upperback -9.46777 22.3873 5.65682
thorax -1.10901 12.6465 15.0307
lowerneck -20.0852 -6.37104 27.8592
upperneck 51.6749 -15.128 -17.1066
head 20.4969 -1.78643 -17.683
rclavicle 1.01778e-013 -5.725e-014
rhumerus 53.4858 -8.88973 20.0073
rradius 42.1733
rwrist -24.5807
rhand -30.8772 -4.23898
rfingers 7.12502
rthumb -4.16459 -34.178
lclavicle 1.01778e-013 -5.725e-014
lhumerus -134.875 -54.6919 153.791
lradius 68.3103
lwrist 26.2093
lhand -49.8434 -48.3734
lfingers 7.12502
lthumb -22.4388 -19.6569
rfemur -39.518 4.65688 11.6187
rtibia 37.4781
rfoot 34.9611 7.41885
rtoes 21.9601
lfemur -48.7294 -2.59028 -23.8835
ltibia 28.5146
lfoot 3.9329 23.6799
ltoes 15.8317
1369
root 4.08471 14.5983 8.91387 109.51 8.24213 -12.9777
lowerback -28.6472 14.043 -8.25708
upperback -9.48931 22.1068 5.62611
thorax -1.0179 12.4779 14.9019
lowerneck -20.103 -6.34798 28.0579
upperneck 51.5433 -15.0938 -17.2605
head 20.3463 -1.80574 -17.749
rclavicle -1.145e-013 -1.08139e-013
rhumerus 53.3939 -8.85624 19.9521
rradius 42.1842
rwrist -24.641
rhand -31.0498 -4.22431
rfingers 7.12502
rthumb -4.33125 -34.16
lclavicle -1.145e-013 -1.08139e-013
lhumerus -134.995 -54.1859 154.635
lradius 65.7601
lwrist 21.1356
lhand -50.6507 -51.2809
lfingers 7.12502
lthumb -23.2135 -22.6599
rfemur -38.9936 4.01492 11.1144
rtibia 37.8386
rfoot 34.8419 7.17223
rtoes 21.7502
lfemur -48.7127 -4.82545 -22.6782
ltibia 25.4125
lfoot 3.11265 25.4803
ltoes 16.5155
1370
root 4.13015 14.6012 8.91928 109.681 8.12847 -12.1786
lowerback -28.5805 13.8559 -8.12283
upperback -9.51909 21.7903 5.58414
thorax -0.92272 12.2896 14.7549
lowerneck -20.1164 -6.34039 28.1945
upperneck 51.4496 -15.0699 -17.3963
head 20.2333 -1.82499 -17.8092
rclavicle -9.54166e-015 3.33958e-014
rhumerus 53.3158 -8.83214 19.868
rradius 42.1908
rwrist -24.6424
rhand -31.249 -4.15673
rfingers 7.12502
rthumb -4.52353 -34.0884
lclavicle -9.54166e-015 3.33958e-014
lhumerus -135.025 -53.7991 155.463
lradius 62.9988
lwrist 16.0722
lhand -51.9966 -53.628
lfingers 7.12502
lthumb -24.5042 -25.1757
rfemur -38.5605 3.36369 10.6223
rtibia 38.3211
rfoot 34.623 6.84263
rtoes 21.5634
lfemur -48.7074 -6.97762 -21.5314
ltibia 22.4292
lfoot 2.39722 27.0708
ltoes 16.7949
1371
root 4.17201 14.6041 8.92025 109.842 8.01483 -11.4052
lowerback -28.5117 13.6644 -7.98596
upperback -9.54794 21.4666 5.54206
thorax -0.826504 12.0975 14.6039
lowerneck -20.1148 -6.34637 28.2744
upperneck 51.3875 -15.0547 -17.5014
head 20.1508 -1.84374 -17.8524
rclavicle -5.08889e-014 7.15625e-015
rhumerus 53.258 -8.81035 19.7598
rradius 42.1819
rwrist -24.5694
rhand -31.4776 -4.06267
rfingers 7.12502
rthumb -4.74427 -33.9895
lclavicle -5.08889e-014 7.15625e-015
lhumerus -134.981 -53.5211 156.246
lradius 60.0794
lwrist 11.2669
lhand -53.692 -55.1085
lfingers 7.12502
lthumb -26.1284 -26.8862
rfemur -38.2205 2.769 10.155
rtibia 38.9135
rfoot 34.3322 6.45541
rtoes 21.4286
lfemur -48.6817 -8.90486 -20.516
ltibia 19.6132
lfoot 1.88126 28.4051
ltoes 16.6603
1372
root 4.20873 14.607 8.91825 109.963 7.9237 -10.7286
lowerback -28.4331 13.4885 -7.84213
upperback -9.56563 21.162 5.51103
thorax -0.731787 11.9154 14.4609
lowerneck -20.0845 -6.35959 28.3115
upperneck 51.3416 -15.0389 -17.5678
head 20.0856 -1.86024 -17.8679
rclavicle 3.18055e-015 -1.66979e-014
rhumerus 53.227 -8.78527 19.63
rradius 42.148
rwrist -24.415
rhand -31.7335 -3.96885
rfingers 7.12502
rthumb -4.99144 -33.8901
lclavicle 3.18055e-015 -1.66979e-014
lhumerus -134.87 -53.3408 156.948
lradius 57.0643
lwrist 6.98511
lhand -55.4225 -55.2958
lfingers 7.12502
lthumb -27.7842 -27.3294
rfemur -37.9686 2.28942 9.72665
rtibia 39.5958
rfoot 34.001 6.05349
rtoes 21.3575
lfemur -48.5923 -10.4612 -19.7309
ltibia 17.0303
lfoot 1.6408 29.414
ltoes 16.1693
1373
root 4.23923 14.6095 8.91471 110.022 7.87418 -10.2017
lowerback -28.3358 13.3435 -7.68556
upperback -9.56345 20.8949 5.50004
thorax -0.63942 11.7527 14.3341
lowerneck -20.0113 -6.37072 28.3235
upperneck 51.2923 -15.0085 -17.5906
head 20.0226 -1.87144 -17.8465
rclavicle 1.33583e-013 9.30312e-014
rhumerus 53.2282 -8.7522 19.4787
rradius 42.0832
rwrist -24.1843
rhand -32.0097 -3.8963
rfingers 7.12502
rthumb -5.25809 -33.8111
lclavicle 1.33583e-013 9.30312e-014
lhumerus -134.696 -53.2477 157.523
lradius 54.0253
lwrist 3.46412
lhand -56.8214 -53.6555
lfingers 7.12502
lthumb -29.1209 -25.9126
rfemur -37.7981 1.96492 9.35074
rtibia 40.3439
rfoot 33.66 5.6879
rtoes 21.3393
lfemur -48.4054 -11.5078 -19.297
ltibia 14.7774
lfoot 1.7183 29.9956
ltoes 15.4078
1374
root 4.26293 14.6114 8.91065 110.003 7.8794 -9.85345
lowerback -28.2127 13.2372 -7.51036
upperback -9.53575 20.674 5.51455
thorax -0.548335 11.6133 14.2272
lowerneck -19.8822 -6.3716 28.3204
upperneck 51.2228 -14.9537 -17.5538
head 19.9513 -1.87472 -17.773
rclavicle 1.24042e-013 7.15625e-014
rhumerus 53.2651 -8.70693 19.3062
rradius 41.9857
rwrist -23.8935
rhand -32.2956 -3.8604
rfingers 7.12502
rthumb -5.53415 -33.7681
lclavicle 1.24042e-013 7.15625e-014
lhumerus -134.459 -53.2355 157.929
lradius 51.0364
lwrist 0.864685
lhand -57.5828 -50.195
lfingers 7.12502
lthumb -29.8478 -22.5803
rfemur -37.7022 1.81064 9.0392
rtibia 41.1335
rfoot 33.3375 5.40805
rtoes 21.3587
lfemur -48.1252 -11.9493 -19.3168
ltibia 12.9932
lfoot 2.08473 30.0503
ltoes 14.4849
